<?xml version="1.0" standalone="no"?><!DOCTYPE svg PUBLIC "-//W3C//DTD SVG 1.1//EN" "http://www.w3.org/Graphics/SVG/1.1/DTD/svg11.dtd"><svg class="icon" width="30px" height="30.00px" viewBox="0 0 1024 1024" version="1.1" xmlns="http://www.w3.org/2000/svg"><path d="M558.2 275.3c61.3-61.3 165.2-55.5 218.4 17.4 42.2 57.8 32.7 138.6-17.9 189.2l-5.8 5.8c-19.2 19.2-19.2 50.4 0 69.6 19.2 19.2 50.4 19.2 69.6 0l5.8-5.8c87.4-87.4 100.6-227.9 24.2-325.2-91.1-115.9-261.3-123.3-362.4-22.2L61.9 632.3c-19.2 19.2-19.2 50.4 0 69.6 19.2 19.2 50.4 19.2 69.6 0l426.7-426.6z" fill="#F24040" /><path d="M96.8 722.3c-14.8 0-28.6-5.7-39.1-16.2-21.5-21.5-21.5-56.6 0-78.1l428.1-428.1c50-50 119.5-76.3 190.7-72 34.6 2.1 67.7 11.1 98.4 26.7 32.1 16.4 59.8 39.2 82.3 68 37.6 47.9 55.6 108.4 50.6 170.4-4.9 61.3-31.6 119-75.3 162.7l-5.8 5.8c-10.4 10.4-24.3 16.2-39.1 16.2s-28.6-5.7-39.1-16.2c-21.5-21.5-21.5-56.6 0-78.1l5.8-5.8c23.7-23.7 38.7-55.1 42-88.3 3.4-33.6-5.4-66.7-24.7-93.2-23.9-32.8-60.7-53.3-101-56.5-40.4-3.1-79.9 11.4-108.3 39.8L135.8 706.1c-10.4 10.5-24.3 16.2-39 16.2z m564.7-582.9c-62.7 0-122.9 24.7-167.2 68.9L66.2 636.5c-16.9 16.9-16.9 44.3 0 61.1 8.2 8.2 19 12.7 30.6 12.7 11.5 0 22.4-4.5 30.6-12.7L554 271c30.9-30.9 73.8-46.7 117.7-43.3 43.7 3.4 83.7 25.7 109.7 61.3 21.1 28.9 30.7 64.9 27 101.5-3.7 35.9-19.8 69.9-45.5 95.6l-5.8 5.8c-8.2 8.2-12.7 19-12.7 30.6 0 11.5 4.5 22.4 12.7 30.6 8.2 8.2 19 12.7 30.6 12.7s22.4-4.5 30.6-12.7l5.8-5.8c41.6-41.6 67.1-96.7 71.8-155.1 4.7-59-12.4-116.6-48.1-162.1-21.5-27.4-47.8-49.1-78.3-64.7-29.2-14.9-60.7-23.5-93.7-25.4-4.8-0.4-9.5-0.6-14.3-0.6z" fill="#232323" /><path d="M895.9 316.7L568.1 152.3c-28.4 11.8-55 28.9-78 51.8l-23.4 23.4 92.8 46.6c61.4-60 164.3-53.9 217.1 18.5 22.3 30.5 30 67.5 25 103l91.2 45.8c11.6-40.7 12.8-83.7 3.1-124.7z" fill="#F9F9F9" /><path d="M892.8 447.4c-0.9 0-1.8-0.2-2.7-0.6L798.9 401c-2.3-1.2-3.6-3.6-3.3-6.2 5-35.6-3.5-70.6-23.9-98.6-23.7-32.5-60.2-53-100.1-56.4-40.1-3.3-79.5 10.7-108 38.6-1.8 1.8-4.6 2.2-6.9 1.1L464 232.9c-1.7-0.9-2.9-2.5-3.2-4.4-0.3-1.9 0.3-3.8 1.7-5.2l23.4-23.4c22.6-22.6 49.6-40.5 80-53.1 1.6-0.7 3.4-0.6 5 0.2l327.8 164.4c1.6 0.8 2.7 2.2 3.1 4 9.9 41.6 8.8 85.8-3.1 127.7-0.5 1.7-1.7 3.1-3.4 3.8-0.8 0.3-1.6 0.5-2.5 0.5z m-84.7-55.2l80.9 40.6c9.3-36.9 9.9-75.4 1.7-111.9l-322.8-162c-27.9 11.9-52.7 28.6-73.6 49.5L476.7 226l81.6 41c30.8-28.4 72.2-42.5 114.3-39 43.3 3.6 83 25.9 108.8 61.2 21.5 29.3 30.9 65.7 26.7 103z" fill="#232323" /><path d="M272.9 421.3l92.7 46.5 84.1-84-92.8-46.5z" fill="#FCFAFA" /><path d="M365.6 473.8c-0.9 0-1.8-0.2-2.7-0.6l-92.7-46.5c-1.7-0.9-2.9-2.5-3.2-4.4-0.3-1.9 0.3-3.8 1.7-5.2l84-84c1.8-1.8 4.6-2.3 6.9-1.1l92.7 46.5c1.7 0.9 2.9 2.5 3.2 4.4 0.3 1.9-0.3 3.8-1.7 5.2l-84 84c-1.1 1.1-2.6 1.7-4.2 1.7zM283 419.7l81.4 40.9 75.1-75.1-81.4-40.9-75.1 75.1z" fill="#232323" /><path d="M811.5 565.3L739.1 529c1.4 10.3 5.8 20.4 13.8 28.3 15.9 15.9 39.9 18.4 58.6 8z" fill="#FCFAFA" /><path d="M787.5 577.5c-14.3 0-28.4-5.5-38.9-16-8.5-8.5-13.9-19.5-15.5-31.8-0.3-2.2 0.7-4.4 2.5-5.7 1.8-1.3 4.2-1.5 6.2-0.5l72.4 36.3c2 1 3.3 3 3.3 5.2s-1.1 4.3-3.1 5.4c-8.4 4.8-17.7 7.1-26.9 7.1z m-39.1-37.1c2.1 4.7 5 9 8.7 12.7 10.4 10.4 25.4 14.5 39.5 11.5l-48.2-24.2z" fill="#232323" /><path d="M238.4 595l-92.7-46.5-83.8 83.8c-0.1 0.1-0.1 0.2-0.2 0.3l92.7 46.5 84-84.1z" fill="#FCFAFA" /><path d="M154.4 685c-0.9 0-1.8-0.2-2.7-0.6L59 637.9c-1.7-0.9-2.9-2.5-3.2-4.4-0.3-1.7 0.2-3.5 1.3-4.8 0.1-0.2 0.3-0.4 0.6-0.7l83.8-83.8c1.8-1.8 4.6-2.3 6.9-1.1l92.7 46.5c1.7 0.9 2.9 2.5 3.2 4.4 0.3 1.9-0.3 3.8-1.7 5.2l-84 84c-1.1 1.2-2.6 1.8-4.2 1.8z m-82.6-54.1l81.4 40.9 75.1-75.1-81.4-40.9-75.1 75.1z" fill="#232323" /></svg>