<?xml version="1.0" standalone="no"?><!DOCTYPE svg PUBLIC "-//W3C//DTD SVG 1.1//EN" "http://www.w3.org/Graphics/SVG/1.1/DTD/svg11.dtd"><svg class="icon" width="20px" height="20.00px" viewBox="0 0 1024 1024" version="1.1" xmlns="http://www.w3.org/2000/svg"><path d="M626.5 857.5H398c-45.8 0-83-37.2-83-83V379c0-43.9 35.6-79.4 79.4-79.4H630c43.9 0 79.4 35.6 79.4 79.4v395.5c0.1 45.8-37 83-82.9 83z" fill="#918686" /><path d="M626.5 863.5H398c-49.1 0-89-39.9-89-89V379c0-47.1 38.3-85.4 85.4-85.4H630c47.1 0 85.4 38.3 85.4 85.4v395.5c0.1 49-39.8 89-88.9 89z m-232-558c-40.5 0-73.4 32.9-73.4 73.4v395.5c0 42.5 34.5 77 77 77h228.5c42.5 0 77-34.5 77-77V379c0-40.5-32.9-73.4-73.4-73.4H394.5z" fill="#232323" /><path d="M801.6 318H223v242.5c0 53.7 46.7 97.3 104.4 97.3 41 0 74.2 31 74.2 69.2v130.5h221.5V727c0-38.2 33.2-69.2 74.2-69.2 57.6 0 104.4-43.6 104.4-97.3V318z" fill="#EFEDE1" /><path d="M629.1 863.5H395.5V727c0-34.8-30.6-63.2-68.2-63.2-60.9 0-110.4-46.3-110.4-103.3V312h590.6v248.5c0 57-49.5 103.3-110.4 103.3-37.6 0-68.2 28.3-68.2 63.2v136.5z m-221.6-12H617V727c0-41.4 36-75.2 80.2-75.2 54.2 0 98.4-41 98.4-91.3V324H229v236.5c0 50.3 44.1 91.3 98.4 91.3 44.2 0 80.2 33.7 80.2 75.2v124.5z" fill="#232323" /><path d="M616 509.1H408.6c-51.4 0-93.5-42.1-93.5-93.5s42.1-93.5 93.5-93.5H616c51.4 0 93.5 42.1 93.5 93.5 0 51.5-42 93.5-93.5 93.5z" fill="#FFFFFF" /><path d="M616 515.1H408.6c-54.9 0-99.5-44.6-99.5-99.5s44.6-99.5 99.5-99.5H616c54.9 0 99.5 44.6 99.5 99.5s-44.6 99.5-99.5 99.5z m-207.4-187c-48.3 0-87.5 39.3-87.5 87.5s39.3 87.5 87.5 87.5H616c48.3 0 87.5-39.3 87.5-87.5s-39.3-87.5-87.5-87.5H408.6z" fill="#232323" /><path d="M883.2 167H734.9c-15.2 0-27.2 11.4-28.8 26.1-1 9.4-4.5 19.5-12.2 30.4-18.9 27.1-51.4 42.1-85 42.1H415.7c-33.6 0-66.1-15-85-42.1-7.7-11-11.2-21-12.2-30.4-1.6-14.7-13.6-26.1-28.8-26.1H141.4c-24.6 0-44.8 18.8-44.8 41.9 0 23 20.2 41.9 44.8 41.9h59.8c-28.6 0-51.2 25.4-43.2 53.2 5.3 18.4 24.3 30.5 44.7 30.5h161.5c59.2 0 107.2 44.8 107.2 100.2v74.6h81.8v-74.6c0-55.3 48-100.2 107.2-100.2h161.5c20.4 0 39.4-12.1 44.7-30.5 8-27.9-14.6-53.2-43.2-53.2h59.8c24.6 0 44.8-18.8 44.8-41.9S907.8 167 883.2 167z" fill="#918686" /><path d="M559.2 515.1h-93.8v-80.6c0-51.9-45.4-94.2-101.2-94.2H202.7c-23.8 0-44.6-14.3-50.5-34.8-4.1-14.1-1.3-28.9 7.5-40.6 2.3-3.1 5-5.8 7.9-8.3h-26.3c-28 0-50.8-21.5-50.8-47.9s22.8-47.9 50.8-47.9h148.3c17.9 0 32.8 13.5 34.8 31.5 1 9.3 4.7 18.3 11.2 27.6 17.3 24.8 47.2 39.5 80.1 39.5h193.2c32.9 0 62.8-14.8 80.1-39.5 6.5-9.3 10.2-18.3 11.2-27.6 1.9-17.9 16.9-31.5 34.8-31.5h148.3c28 0 50.8 21.5 50.8 47.9s-22.8 47.9-50.8 47.9H857c2.9 2.4 5.6 5.2 7.9 8.3 8.8 11.7 11.5 26.5 7.5 40.6-5.9 20.5-26.7 34.8-50.5 34.8H660.4c-55.8 0-101.2 42.2-101.2 94.2v80.6z m-81.8-12h69.8v-68.6c0-58.5 50.8-106.2 113.2-106.2h161.5c18.2 0 34.6-11 39-26.2 3-10.6 1.1-21.3-5.5-30.1-7.3-9.7-19.2-15.5-31.8-15.5v-12h59.8c21.4 0 38.8-16.1 38.8-35.9 0-19.8-17.4-35.9-38.8-35.9H734.9c-11.7 0-21.6 8.9-22.8 20.8-1.2 11.3-5.6 22.2-13.2 33.2-19.5 28-53.2 44.7-89.9 44.7H415.7c-36.8 0-70.4-16.7-89.9-44.7-7.7-11-12-21.9-13.2-33.2-1.3-11.8-11.1-20.8-22.8-20.8H141.4c-21.4 0-38.8 16.1-38.8 35.9 0 19.8 17.4 35.9 38.8 35.9h59.8v12c-12.6 0-24.6 5.8-31.9 15.5-6.6 8.8-8.6 19.5-5.5 30.1 4.3 15.2 20.7 26.2 39 26.2h161.5c62.4 0 113.2 47.6 113.2 106.2v68.6z" fill="#232323" /><path d="M512.3 620.1c-19.8 0-36-16.2-36-36v-92.9c0-19.8 16.2-36 36-36s36 16.2 36 36v92.9c0 19.8-16.2 36-36 36z" fill="#C49955" /><path d="M512.3 626.1c-23.2 0-42-18.8-42-42v-92.9c0-23.2 18.8-42 42-42s42 18.8 42 42v92.9c0 23.2-18.9 42-42 42z m0-164.9c-16.5 0-30 13.5-30 30v92.9c0 16.5 13.5 30 30 30s30-13.5 30-30v-92.9c0-16.5-13.5-30-30-30z" fill="#232323" /><path d="M376 430.3c-1.1 0-2.3-0.3-3.3-1-2.8-1.8-3.6-5.5-1.7-8.3 8.4-12.9 18.4-19.7 29.6-20.1 19.6-0.7 34.8 18.9 35.4 19.7 2 2.6 1.5 6.4-1.1 8.4s-6.4 1.5-8.4-1.1c-0.2-0.3-12.2-15.5-25.5-15-7.1 0.3-13.8 5.2-20 14.6-1.1 1.8-3 2.8-5 2.8zM593.3 430.3c-1.1 0-2.3-0.3-3.3-1-2.8-1.8-3.6-5.5-1.7-8.3 8.4-12.9 18.4-19.7 29.6-20.1h1c19.1 0 33.8 18.9 34.4 19.7 2 2.6 1.5 6.4-1.1 8.4s-6.4 1.5-8.4-1.1c-0.1-0.2-12.1-15.5-25.5-15-7.1 0.3-13.8 5.2-20 14.6-1.2 1.8-3.1 2.8-5 2.8z" fill="#232323" /></svg>