<?xml version="1.0" standalone="no"?><!DOCTYPE svg PUBLIC "-//W3C//DTD SVG 1.1//EN" "http://www.w3.org/Graphics/SVG/1.1/DTD/svg11.dtd"><svg class="icon" width="20px" height="20.00px" viewBox="0 0 1024 1024" version="1.1" xmlns="http://www.w3.org/2000/svg"><path d="M739.6 678.8L626 565.2c-11.9-11.9-18.7-28.1-18.7-45V247.7H322.8v350.4c0 27.4 7.4 54.5 22.2 77.6 6.1 9.5 12.7 18.8 18.8 24.9l180 180c59.8 59.8 161.3 54.2 213.3-17 41.2-56.4 31.9-135.4-17.5-184.8z" fill="#1997DD" /><path d="M643.2 928.2c-39 0-76.4-15.3-104.1-43l-180-180c-5.8-5.8-12.4-14.5-19.8-26-15.2-23.8-23.2-51.8-23.2-81.2V247.7c0-3.7 3-6.7 6.7-6.7h284.6c3.7 0 6.7 3 6.7 6.7v272.5c0 15.2 5.9 29.6 16.7 40.3L744.3 674c25.2 25.2 41.1 58.5 44.7 93.8 3.6 35.9-5.8 71.3-26.5 99.7-25.5 35-64.8 56.9-107.8 60.2-3.9 0.4-7.7 0.5-11.5 0.5zM329.5 254.4v343.7c0 26.8 7.3 52.4 21.1 74 6.8 10.7 12.9 18.7 17.9 23.8l180 180c27.6 27.6 65.9 41.7 105.2 38.6 39.1-3 74.8-23 98-54.8 18.8-25.7 27.3-57.8 24-90.5-3.3-32.2-17.8-62.7-40.8-85.8L621.3 569.9c-13.3-13.3-20.6-30.9-20.6-49.7V254.4H329.5z" fill="#232323" /><path d="M630.6 273.7H321.9c-42.7 0-77.2-34.6-77.2-77.2v-16.8c0-42.7 34.6-77.2 77.2-77.2h308.7c42.7 0 77.2 34.6 77.2 77.2v16.8c0 42.7-34.5 77.2-77.2 77.2z" fill="#F9F9F9" /><path d="M622.2 280.4H330.3c-50.9 0-92.3-41.4-92.3-92.3s41.4-92.3 92.3-92.3h291.8c50.9 0 92.3 41.4 92.3 92.3s-41.3 92.3-92.2 92.3zM330.3 109.1c-43.6 0-79 35.4-79 79s35.4 79 79 79h291.8c43.6 0 79-35.4 79-79s-35.4-79-79-79H330.3z" fill="#232323" /><path d="M329.2 521.3c-2.1 0-4.2 0.2-6.4 0.3v76.5c0 27.4 7.4 54.5 22.2 77.6 6.1 9.5 12.7 18.8 18.8 24.9l33.3 33.3c29.8-21.3 49.3-56 49.3-95.4 0-64.7-52.5-117.2-117.2-117.2z" fill="#F7F8F9" /><path d="M397.1 740.5c-1.7 0-3.4-0.7-4.7-1.9l-33.3-33.3c-5.8-5.8-12.4-14.5-19.8-26-15.2-23.8-23.2-51.8-23.2-81.2v-76.5c0-3.5 2.8-6.5 6.3-6.6 0.6 0 1.2-0.1 1.9-0.1 1.5-0.1 3.1-0.2 4.9-0.2 68.3 0 123.9 55.6 123.9 123.9 0 39.9-19.5 77.5-52 100.8-1.3 0.7-2.6 1.1-4 1.1z m-67.6-212.6V598c0 26.8 7.3 52.4 21.1 74 6.8 10.7 12.9 18.7 17.9 23.8l29.2 29.2c26.4-20.9 42-52.9 42-86.6 0-60.8-49.4-110.3-110.2-110.5z" fill="#232323" /><path d="M757.1 863.6c34.7-47.5 33.5-110.8 2.8-159.2L541.8 878.5l2 2c59.8 59.9 161.3 54.2 213.3-16.9z" fill="#F7F8F9" /><path d="M643.2 928.2c-39 0-76.4-15.3-104.1-43l-2-2c-1.3-1.3-2-3.2-1.9-5.1 0.1-1.9 1-3.6 2.5-4.8l218.1-174.1c1.5-1.2 3.4-1.7 5.3-1.4 1.9 0.3 3.5 1.4 4.5 3 16 25.2 24.3 54.1 24.1 83.5-0.2 30.3-9.6 59.1-27.2 83.1l-5.4-3.9 5.4 3.9c-25.5 35-64.8 56.9-107.8 60.2-3.9 0.5-7.7 0.6-11.5 0.6z m-91.4-49.1c27.3 25.5 64.2 38.4 101.9 35.4 39.1-3 74.8-23 98-54.8 15.9-21.8 24.4-47.8 24.6-75.4 0.2-24.4-6.1-48.4-18.2-69.9L551.8 879.1z" fill="#232323" /></svg>