<?xml version="1.0" standalone="no"?><!DOCTYPE svg PUBLIC "-//W3C//DTD SVG 1.1//EN" "http://www.w3.org/Graphics/SVG/1.1/DTD/svg11.dtd"><svg class="icon" width="20px" height="20.00px" viewBox="0 0 1024 1024" version="1.1" xmlns="http://www.w3.org/2000/svg"><path d="M209.5 755.9V441.6c0-166.8 136.5-303.3 303.3-303.3s303.3 136.5 303.3 303.3V756" fill="#F24040" /><path d="M821.1 755.9h-10V441.6c0-40.1-7.9-79.1-23.5-115.8-15.1-35.5-36.6-67.4-64.1-94.9-27.5-27.5-59.4-49-94.9-64.1-36.8-15.6-75.7-23.5-115.8-23.5-40.1 0-79.1 7.9-115.8 23.5-35.5 15.1-67.4 36.6-94.9 64.1-27.5 27.5-49 59.4-64.1 94.9-15.6 36.8-23.5 75.7-23.5 115.8V756h-10V441.6c0-41.4 8.2-81.7 24.3-119.7 15.6-36.7 37.9-69.7 66.2-98 28.4-28.4 61.3-50.6 98-66.2 38-16.1 78.3-24.3 119.7-24.3 41.4 0 81.7 8.2 119.7 24.3 36.7 15.6 69.7 37.9 98 66.2 28.4 28.4 50.6 61.3 66.2 98 16.1 38 24.3 78.3 24.3 119.7v314.3z" fill="#232323" /><path d="M806.8 884.1H218.9c-46.4 0-84.4-38-84.4-84.4 0-46.4 38-84.4 84.4-84.4h587.9c46.4 0 84.4 38 84.4 84.4 0 46.5-38 84.4-84.4 84.4z" fill="#FFFFFF" /><path d="M806.8 889.1H218.9c-49.3 0-89.4-40.1-89.4-89.4 0-49.3 40.1-89.4 89.4-89.4h587.9c49.3 0 89.4 40.1 89.4 89.4 0 49.3-40.1 89.4-89.4 89.4zM218.9 720.3c-43.8 0-79.4 35.6-79.4 79.4 0 43.8 35.6 79.4 79.4 79.4h587.9c43.8 0 79.4-35.6 79.4-79.4 0-43.8-35.6-79.4-79.4-79.4H218.9z" fill="#232323" /><path d="M815 415.4v138.7c0 38.7-31.7 70.4-70.4 70.4s-70.4-31.7-70.4-70.4V396.6" fill="#F24040" /><path d="M744.7 629.4c-41.5 0-75.3-33.8-75.3-75.3V396.6h10V554c0 36 29.3 65.4 65.4 65.4s65.4-29.3 65.4-65.4V415.4h10v138.7c-0.2 41.5-34 75.3-75.5 75.3z" fill="#232323" /><path d="M609.8 336.1c35.5 0 64.5 29 64.5 64.5" fill="#F24040" /><path d="M679.3 400.6h-10c0-32.8-26.7-59.5-59.5-59.5v-10c38.3 0 69.5 31.2 69.5 69.5z" fill="#232323" /><path d="M737.6 727.8m-115.7 0a115.7 115.7 0 1 0 231.4 0 115.7 115.7 0 1 0-231.4 0Z" fill="#FFFFFF" /><path d="M737.6 848.5c-66.5 0-120.7-54.1-120.7-120.7S671 607.1 737.6 607.1c66.5 0 120.7 54.1 120.7 120.7s-54.2 120.7-120.7 120.7z m0-231.4c-61 0-110.7 49.7-110.7 110.7s49.7 110.7 110.7 110.7 110.7-49.7 110.7-110.7-49.7-110.7-110.7-110.7z" fill="#232323" /></svg>