<?xml version="1.0" standalone="no"?><!DOCTYPE svg PUBLIC "-//W3C//DTD SVG 1.1//EN" "http://www.w3.org/Graphics/SVG/1.1/DTD/svg11.dtd"><svg class="icon" width="20px" height="20.00px" viewBox="0 0 1024 1024" version="1.1" xmlns="http://www.w3.org/2000/svg"><path d="M795.8 928.3H184.7V580.8l305.5-282.6 305.6 282.6z" fill="#55AEE5" /><path d="M801.8 934.3H178.7V578.1l1.9-1.8L490.2 290l311.5 288.1v356.2z m-611.1-12h599.1V583.4l-299.5-277-299.5 277v338.9z" fill="#232323" /><path d="M705.6 262.8h88.6v216.1h-88.6z" fill="#55AEE5" /><path d="M800.2 484.9H699.6V256.8h100.6v228.1z m-88.6-12h76.6V268.8h-76.6v204.1z" fill="#232323" /><path d="M133.7 516c-4.2 21.2 1.9 44.1 18.2 60.5 23 23 59 25.7 85 8" fill="#FFFFFF" /><path d="M199.3 602.1c-18.8 0-37.5-7.2-51.6-21.3-17.2-17.2-24.6-41.9-19.9-65.9l11.8 2.3c-4 20.1 2.2 40.7 16.6 55.1 20.7 20.7 53.2 23.7 77.4 7.3l6.8 9.9c-12.5 8.5-26.9 12.6-41.1 12.6z" fill="#232323" /><path d="M237 584.5c3.4-2.3 6.6-5 9.6-8l243.6-213.9 243.6 213.9c26 26 68.6 26 94.6 0s26-68.6 0-94.6l-291-261.2c-26-26-68.6-26-94.6 0L152 481.9c-9.7 9.7-15.7 21.6-18.2 34.1" fill="#FFFFFF" /><path d="M781.2 602.1c-19.5 0-37.7-7.5-51.4-21.1L490.2 370.6 250.7 580.9c-3.2 3.2-6.7 6-10.4 8.6l-6.8-9.9c3.1-2.1 6.1-4.6 8.8-7.3l0.3-0.3 247.6-217.4 247.9 217.6c11.5 11.5 26.8 17.8 43.1 17.8s31.6-6.3 43.1-17.8 17.8-26.8 17.8-43.1-6.3-31.5-17.7-43L533.4 225l-0.1-0.1c-23.8-23.8-62.4-23.8-86.2 0l-0.2 0.2-290.8 261.1c-8.4 8.5-14.1 19.2-16.5 31l-11.8-2.3c2.8-14.2 9.7-27 19.9-37.2l0.2-0.2 290.8-261.1c28.4-28.3 74.5-28.3 102.9 0l291 261.2 0.1 0.1c28.4 28.4 28.4 74.7 0 103.1-13.7 13.7-32 21.3-51.5 21.3z" fill="#232323" /><path d="M185.3 582.5v87c0 14.2-11.6 25.8-25.8 25.8-14.2 0-25.8-11.6-25.8-25.8V511.9" fill="#FFFFFF" /><path d="M159.5 701.3c-17.5 0-31.8-14.3-31.8-31.8V511.9h12v157.5c0 10.9 8.9 19.8 19.8 19.8s19.8-8.9 19.8-19.8v-87h12v87c0 17.6-14.2 31.9-31.8 31.9z" fill="#232323" /><path d="M236.3 580.8v40.5c0 12.2-11.6 22.1-25.8 22.1-14.2 0-25.8-9.9-25.8-22.1v-40.5" fill="#FFFFFF" /><path d="M210.5 649.4c-17.5 0-31.8-12.6-31.8-28.1v-40.5c0-3.3 2.7-6 6-6s6 2.7 6 6v40.5c0 8.7 9.1 16.1 19.8 16.1s19.8-7.4 19.8-16.1v-40.5c0-3.3 2.7-6 6-6s6 2.7 6 6v40.5c0 15.4-14.3 28.1-31.8 28.1z" fill="#232323" /><path d="M787.4 262.8h-74.9c-17.4 0-31.6-14.2-31.6-31.6 0-17.4 14.2-31.6 31.6-31.6h74.9c17.4 0 31.6 14.2 31.6 31.6 0 17.3-14.2 31.6-31.6 31.6z" fill="#FFFFFF" /><path d="M787.4 268.8h-74.9c-20.8 0-37.6-16.9-37.6-37.6 0-20.8 16.9-37.6 37.6-37.6h74.9c20.8 0 37.6 16.9 37.6 37.6 0 20.7-16.9 37.6-37.6 37.6z m-75-63.3c-14.1 0-25.6 11.5-25.6 25.6 0 14.1 11.5 25.6 25.6 25.6h74.9c14.1 0 25.6-11.5 25.6-25.6 0-14.1-11.5-25.6-25.6-25.6h-74.9z" fill="#232323" /><path d="M570.2 739.9H410.3c-12.3 0-22.3-10-22.3-22.3s10-22.3 22.3-22.3h159.9c12.3 0 22.3 10 22.3 22.3s-10.1 22.3-22.3 22.3z" fill="#FFFFFF" /><path d="M570.2 745.9H410.3c-15.6 0-28.3-12.7-28.3-28.3 0-15.6 12.7-28.3 28.3-28.3h159.9c15.6 0 28.3 12.7 28.3 28.3 0 15.6-12.7 28.3-28.3 28.3z m-159.9-44.6c-9 0-16.3 7.3-16.3 16.3s7.3 16.3 16.3 16.3h159.9c9 0 16.3-7.3 16.3-16.3s-7.3-16.3-16.3-16.3H410.3z" fill="#232323" /><path d="M410.3 743.6h159.9v182.2H410.3z" fill="#FFFFFF" /><path d="M576.2 931.8H404.3V737.6h171.9v194.2z m-159.9-12h147.9V749.6H416.3v170.2z" fill="#232323" /><path d="M784.3 151.8a34.7 20.4 0 1 0 69.4 0 34.7 20.4 0 1 0-69.4 0Z" fill="#55AEE5" /><path d="M819 176.2c-21.7 0-38.7-10.7-38.7-24.4s17-24.4 38.7-24.4 38.7 10.7 38.7 24.4-17 24.4-38.7 24.4z m0-40.8c-16.6 0-30.7 7.5-30.7 16.4 0 8.9 14.1 16.4 30.7 16.4s30.7-7.5 30.7-16.4c0-8.9-14.1-16.4-30.7-16.4z" fill="#232323" /><path d="M846 102a23.8 14 0 1 0 47.6 0 23.8 14 0 1 0-47.6 0Z" fill="#55AEE5" /><path d="M869.8 118.5c-14.7 0-26.3-7.2-26.3-16.5s11.5-16.5 26.3-16.5 26.3 7.2 26.3 16.5-11.6 16.5-26.3 16.5z m0-28c-11.5 0-21.3 5.3-21.3 11.5s9.7 11.5 21.3 11.5 21.3-5.3 21.3-11.5-9.8-11.5-21.3-11.5z" fill="#232323" /></svg>