<?xml version="1.0" standalone="no"?><!DOCTYPE svg PUBLIC "-//W3C//DTD SVG 1.1//EN" "http://www.w3.org/Graphics/SVG/1.1/DTD/svg11.dtd"><svg class="icon" width="20px" height="20.00px" viewBox="0 0 1024 1024" version="1.1" xmlns="http://www.w3.org/2000/svg"><path d="M483.8 408.1c-31.3 31.3-82.5 31.3-113.8 0L259.7 297.7c-31.3-31.3-31.3-82.5 0-113.8 31.3-31.3 82.5-31.3 113.8 0l110.3 110.3c31.3 31.3 31.3 82.6 0 113.9z" fill="#FFFFFF" /><path d="M426.9 437.6c-22.2 0-44.3-8.4-61.2-25.3L255.4 302c-33.7-33.7-33.7-88.6 0-122.3s88.6-33.7 122.3 0L488.1 290c33.7 33.7 33.7 88.6 0 122.3-16.9 16.9-39 25.3-61.2 25.3zM316.6 166.4c-19.1 0-38.2 7.3-52.7 21.8-29 29-29 76.3 0 105.4l110.3 110.3c29 29 76.3 29 105.4 0l4.2 4.2-4.2-4.2c29-29 29-76.3 0-105.4L369.3 188.1c-14.6-14.5-33.6-21.7-52.7-21.7z" fill="#232323" /><path d="M538.5 408.1c-31.3-31.3-31.3-82.5 0-113.8L648.8 184c31.3-31.3 82.5-31.3 113.8 0 31.3 31.3 31.3 82.5 0 113.8L652.4 408.1c-31.4 31.3-82.6 31.3-113.9 0z" fill="#FFFFFF" /><path d="M595.4 437.6c-22.2 0-44.3-8.4-61.2-25.3-33.7-33.7-33.7-88.6 0-122.3l110.3-110.3c16.3-16.3 38-25.2 61.2-25.2s44.9 9 61.2 25.2c16.3 16.3 25.2 38 25.2 61.2s-9 44.9-25.2 61.2L656.6 412.3c-16.9 16.9-39 25.3-61.2 25.3z m-52.6-33.8c29 29 76.3 29 105.4 0l110.3-110.3c14-14 21.7-32.7 21.7-52.7s-7.7-38.7-21.7-52.7-32.7-21.7-52.7-21.7-38.7 7.7-52.7 21.7L542.8 298.5c-29.1 29-29.1 76.3 0 105.3l-4.2 4.2 4.2-4.2z" fill="#232323" /><path d="M541.1 449.7h-59.9c-25.8 0-47-21.1-47-47V274.6c0-25.8 21.1-47 47-47h59.9c25.8 0 47 21.1 47 47v128.1c0 25.9-21.2 47-47 47z" fill="#FFFFFF" /><path d="M541.1 455.7h-59.9c-29.2 0-53-23.8-53-53V274.6c0-29.2 23.8-53 53-53h59.9c29.2 0 53 23.8 53 53v128.1c0 29.3-23.8 53-53 53z m-59.9-222.1c-22.6 0-41 18.4-41 41v128.1c0 22.6 18.4 41 41 41h59.9c22.6 0 41-18.4 41-41V274.6c0-22.6-18.4-41-41-41h-59.9z" fill="#232323" /><path d="M141.3 311.8H881v176.1H141.3z" fill="#1997DD" /><path d="M881 493.9H141.3c-3.3 0-6-2.7-6-6V311.8c0-3.3 2.7-6 6-6H881c3.3 0 6 2.7 6 6v176.1c0 3.3-2.7 6-6 6z m-733.7-12H875V317.8H147.3v164.1z" fill="#232323" /><path d="M224.8 487.9h572.7v377.5H224.8z" fill="#1997DD" /><path d="M797.5 871.4H224.8c-3.3 0-6-2.7-6-6V487.9c0-3.3 2.7-6 6-6h572.7c3.3 0 6 2.7 6 6v377.5c0 3.3-2.6 6-6 6z m-566.7-12h560.7V493.9H230.8v365.5z" fill="#232323" /><path d="M473.7 312h74.9v175.9h-74.9z" fill="#F9C5F4" /><path d="M548.6 493.9h-74.9c-3.3 0-6-2.7-6-6V312c0-3.3 2.7-6 6-6h74.9c3.3 0 6 2.7 6 6v175.9c0 3.3-2.6 6-6 6z m-68.9-12h62.9V318h-62.9v163.9z" fill="#232323" /><path d="M473.7 487.9h74.9v377.5h-74.9z" fill="#F9C5F4" /><path d="M548.6 871.4h-74.9c-3.3 0-6-2.7-6-6V487.9c0-3.3 2.7-6 6-6h74.9c3.3 0 6 2.7 6 6v377.5c0 3.3-2.6 6-6 6z m-68.9-12h62.9V493.9h-62.9v365.5z" fill="#232323" /></svg>